<svg xmlns="http://www.w3.org/2000/svg" width="300" height="70" viewBox="0 0 1000 228" version="1.1"><path d="M 428 106.500 L 428 139.100 433.750 138.800 L 439.500 138.500 439.500 106.500 L 439.500 74.500 433.750 74.200 L 428 73.900 428 106.500 M 585.454 75.260 C 585.188 75.953, 585.090 90.465, 585.235 107.510 L 585.500 138.500 591.250 138.800 L 597 139.100 597 120.999 L 597 102.898 600.468 101.449 C 605.107 99.510, 610.425 99.603, 612.128 101.651 C 613.148 102.879, 613.585 107.895, 613.832 121.199 L 614.163 139.095 619.832 138.797 L 625.500 138.500 625.475 120 C 625.453 103.904, 625.203 100.997, 623.555 97.632 C 620.573 91.544, 616.934 89.825, 608 90.284 C 603.875 90.495, 599.712 91.016, 598.750 91.441 C 597.155 92.146, 597 91.408, 597 83.107 L 597 74 591.469 74 C 587.943 74, 585.762 74.457, 585.454 75.260 M 686 106.500 L 686 139.100 691.750 138.800 L 697.500 138.500 697.500 106.500 L 697.500 74.500 691.750 74.200 L 686 73.900 686 106.500 M 736.667 74.667 C 736.300 75.033, 736 78.587, 736 82.564 L 736 89.795 727.671 90.147 C 720.321 90.459, 718.897 90.839, 715.562 93.384 C 709.697 97.859, 708.044 102.613, 708.044 115 C 708.044 127.392, 709.698 132.145, 715.569 136.616 C 719.253 139.422, 719.668 139.498, 730.928 139.433 C 737.293 139.397, 743.737 138.845, 745.250 138.208 L 748 137.050 748 105.525 L 748 74 742.667 74 C 739.733 74, 737.033 74.300, 736.667 74.667 M 165.002 101.750 C 165.003 125.241, 165.216 128.918, 166.752 131.929 C 169.989 138.277, 172.770 139.460, 185.320 139.825 C 199.121 140.227, 202 139.347, 202 134.725 C 202 129.562, 200.750 129, 189.275 129 C 179.112 129, 178.935 128.960, 177.975 126.435 C 177.438 125.022, 177 112.891, 177 99.435 L 177 75 171 75 L 165 75 165.002 101.750 M 216.168 92.092 C 213.690 93.349, 210.695 96.013, 209.168 98.317 C 206.741 101.980, 206.470 103.370, 206.164 113.679 C 205.865 123.735, 206.076 125.526, 208.035 129.572 C 209.397 132.385, 211.796 135.160, 214.298 136.816 C 217.865 139.176, 219.336 139.500, 226.500 139.500 C 233.664 139.500, 235.135 139.176, 238.702 136.816 C 245.067 132.604, 247 127.521, 247 115 C 247 102.490, 245.065 97.395, 238.719 93.195 C 233.033 89.433, 222.432 88.914, 216.168 92.092 M 316.168 92.092 C 313.690 93.349, 310.695 96.013, 309.168 98.317 C 306.741 101.980, 306.470 103.370, 306.164 113.679 C 305.865 123.735, 306.076 125.526, 308.035 129.572 C 309.397 132.385, 311.796 135.160, 314.298 136.816 C 317.865 139.176, 319.336 139.500, 326.500 139.500 C 333.664 139.500, 335.135 139.176, 338.702 136.816 C 345.067 132.604, 347 127.521, 347 115 C 347 102.490, 345.065 97.395, 338.719 93.195 C 333.033 89.433, 322.432 88.914, 316.168 92.092 M 383.073 91.088 C 380.637 91.565, 378.278 92.529, 377.830 93.228 C 377.381 93.928, 377.124 108.225, 377.257 125 L 377.500 155.500 383.250 155.800 L 389 156.100 389 148.050 L 389 140 396.032 140 C 399.900 140, 404.519 139.392, 406.298 138.649 C 410.716 136.803, 415.734 130.832, 416.701 126.271 C 417.730 121.415, 417.730 108.585, 416.701 103.729 C 415.734 99.168, 410.716 93.197, 406.298 91.351 C 402.712 89.853, 390.097 89.710, 383.073 91.088 M 454 90.847 C 451.921 91.456, 451.448 92.288, 451.193 95.790 L 450.885 100 461.386 100 C 471.103 100, 472.003 100.166, 473.443 102.223 C 474.299 103.445, 475 105.695, 475 107.223 C 475 109.994, 474.985 110, 468.020 110 C 454.755 110, 448.712 114.640, 448.639 124.880 C 448.591 131.577, 450.802 136.329, 454.967 138.483 C 458.647 140.386, 467.005 140.443, 471.427 138.595 C 473.589 137.692, 475.135 137.535, 475.755 138.155 C 476.286 138.686, 478.921 138.981, 481.610 138.810 L 486.500 138.500 486.500 119.321 C 486.500 101.510, 486.353 99.946, 484.438 97.383 C 479.991 91.431, 477.694 90.516, 466.680 90.307 C 461.081 90.200, 455.375 90.443, 454 90.847 M 506.500 91.412 C 498.849 94.812, 495.992 101.303, 496.022 115.218 C 496.061 133.625, 501.458 140, 517 140 C 526.995 140, 529 139.001, 529 134.025 C 529 131.511, 528.531 129.973, 527.750 129.927 C 527.063 129.887, 523.292 129.914, 519.371 129.989 C 512.743 130.114, 512.093 129.934, 510.121 127.427 C 508.290 125.099, 508 123.401, 508 115 C 508 106.599, 508.290 104.901, 510.121 102.573 C 512.093 100.066, 512.743 99.886, 519.371 100.011 C 523.292 100.086, 527.063 100.113, 527.750 100.073 C 528.531 100.027, 529 98.489, 529 95.975 C 529 92.575, 528.602 91.799, 526.435 90.975 C 522.737 89.569, 510.019 89.848, 506.500 91.412 M 545.500 91.828 C 537.415 95.647, 534.991 100.943, 535.022 114.718 C 535.048 126.119, 536.651 130.731, 542.322 135.709 C 546.835 139.672, 550.507 140.387, 563.195 139.776 C 574.282 139.243, 575.187 138.713, 574.761 133 L 574.500 129.500 563.171 129.500 C 551.998 129.500, 551.807 129.461, 549.421 126.694 C 548.043 125.098, 547 122.620, 547 120.944 L 547 118 561.500 118 L 576 118 576 111.316 C 576 102.774, 573.315 96.899, 567.719 93.195 C 562.338 89.634, 551.550 88.970, 545.500 91.828 M 645.168 92.092 C 642.690 93.349, 639.695 96.013, 638.168 98.317 C 635.741 101.980, 635.470 103.370, 635.164 113.679 C 634.865 123.735, 635.076 125.526, 637.035 129.572 C 638.397 132.385, 640.796 135.160, 643.298 136.816 C 646.865 139.176, 648.336 139.500, 655.500 139.500 C 662.664 139.500, 664.135 139.176, 667.702 136.816 C 674.067 132.604, 676 127.521, 676 115 C 676 102.490, 674.065 97.395, 667.719 93.195 C 662.033 89.433, 651.432 88.914, 645.168 92.092 M 767.500 91.828 C 759.415 95.647, 756.991 100.943, 757.022 114.718 C 757.048 126.119, 758.651 130.731, 764.322 135.709 C 768.835 139.672, 772.507 140.387, 785.195 139.776 C 796.282 139.243, 797.187 138.713, 796.761 133 L 796.500 129.500 785.171 129.500 C 773.998 129.500, 773.807 129.461, 771.421 126.694 C 770.043 125.098, 769 122.620, 769 120.944 L 769 118 783.500 118 L 798 118 798 111.316 C 798 102.774, 795.315 96.899, 789.719 93.195 C 784.338 89.634, 773.550 88.970, 767.500 91.828 M 822.250 91.466 C 820.370 92.298, 819 92.481, 819 91.902 C 819 91.314, 816.623 91.024, 813.250 91.200 L 807.500 91.500 807.500 115 L 807.500 138.500 813.250 138.800 L 819 139.100 819 121.078 L 819 103.056 824.750 101.459 C 827.913 100.581, 831.089 99.673, 831.808 99.441 C 832.683 99.158, 833.014 97.608, 832.808 94.759 C 832.512 90.669, 832.361 90.491, 829 90.265 C 827.075 90.135, 824.038 90.676, 822.250 91.466 M 265.271 92.964 C 257.942 96.290, 254.756 104.267, 257.513 112.386 C 258.654 115.747, 258.796 117.514, 258.038 118.929 C 256.572 121.668, 256.750 127.275, 258.372 129.495 C 259.557 131.115, 259.489 131.790, 257.876 134.436 C 256.732 136.313, 256.006 139.379, 256.004 142.350 C 256.001 146.505, 256.472 147.672, 259.297 150.497 C 263.352 154.552, 268.246 155.989, 278 155.989 C 287.455 155.989, 292.576 154.578, 296.171 150.983 C 298.576 148.578, 299 147.347, 299 142.765 C 299 134.500, 295.515 131.686, 281.245 128.430 C 269.215 125.685, 267 124.944, 267 123.662 C 267 122.734, 269.451 122.414, 276.274 122.450 C 292.385 122.537, 298.653 117.700, 297.795 105.844 C 297.476 101.436, 297.715 99.663, 298.679 99.293 C 299.461 98.993, 300 97.197, 300 94.893 L 300 91 284.750 91.022 C 271.879 91.040, 268.840 91.343, 265.271 92.964 M 222.364 101.170 C 221.189 101.738, 219.727 103.304, 219.114 104.649 C 217.674 107.810, 217.671 122.184, 219.110 125.343 C 220.208 127.752, 223.775 130, 226.500 130 C 229.225 130, 232.792 127.752, 233.890 125.343 C 234.500 124.002, 235 119.348, 235 115 C 235 106.075, 233.875 102.720, 230.343 101.110 C 227.407 99.773, 225.215 99.789, 222.364 101.170 M 270.455 102.455 C 267.514 105.395, 267.344 107.968, 269.883 111.104 C 271.441 113.028, 272.715 113.429, 277.272 113.429 C 284.062 113.429, 286 111.987, 286 106.934 C 286 102.144, 283.289 100, 277.232 100 C 273.976 100, 272.304 100.606, 270.455 102.455 M 322.364 101.170 C 321.189 101.738, 319.727 103.304, 319.114 104.649 C 317.674 107.810, 317.671 122.184, 319.110 125.343 C 320.208 127.752, 323.775 130, 326.500 130 C 329.225 130, 332.792 127.752, 333.890 125.343 C 334.500 124.002, 335 119.348, 335 115 C 335 106.075, 333.875 102.720, 330.343 101.110 C 327.407 99.773, 325.215 99.789, 322.364 101.170 M 389 115 L 389 130 395 130 C 402.643 130, 404.572 128.275, 405.533 120.582 C 406.493 112.900, 405.286 104.286, 402.918 101.918 C 401.454 100.454, 399.581 100, 395 100 L 389 100 389 115 M 551.500 101.105 C 548.567 102.782, 547 105.076, 547 107.691 C 547 109.922, 547.288 110, 555.500 110 C 563.795 110, 564 109.942, 564 107.611 C 564 102.281, 556.378 98.314, 551.500 101.105 M 651.364 101.170 C 650.189 101.738, 648.727 103.304, 648.114 104.649 C 646.674 107.810, 646.671 122.184, 648.110 125.343 C 649.208 127.752, 652.775 130, 655.500 130 C 658.225 130, 661.792 127.752, 662.890 125.343 C 663.500 124.002, 664 119.348, 664 115 C 664 106.075, 662.875 102.720, 659.343 101.110 C 656.407 99.773, 654.215 99.789, 651.364 101.170 M 722.073 102.635 C 720.298 104.890, 720 106.670, 720 115 C 720 123.330, 720.298 125.110, 722.073 127.365 C 723.895 129.682, 724.860 130, 730.073 130 L 736 130 736 115 L 736 100 730.073 100 C 724.860 100, 723.895 100.318, 722.073 102.635 M 773.500 101.105 C 770.567 102.782, 769 105.076, 769 107.691 C 769 109.922, 769.288 110, 777.500 110 C 785.795 110, 786 109.942, 786 107.611 C 786 102.281, 778.378 98.314, 773.500 101.105 M 462.705 119.250 C 461.782 119.938, 460.749 121.916, 460.409 123.646 C 459.493 128.315, 462.867 131.435, 467.825 130.505 C 474.179 129.313, 475 128.450, 475 122.965 L 475 118 469.691 118 C 466.771 118, 463.627 118.563, 462.705 119.250 M 268.001 137.998 C 266.356 141.071, 267.589 144.893, 270.593 146.035 C 273.947 147.310, 282.631 147.268, 285.066 145.965 C 286.166 145.376, 287 143.879, 287 142.493 C 287 140.408, 286.242 139.842, 281.750 138.576 C 271.419 135.664, 269.298 135.575, 268.001 137.998" stroke="none" fill="#fffcfc" fill-rule="evenodd"/><path d="" stroke="none" fill="#fcfcfc" fill-rule="evenodd"/></svg>